<svg width="41" height="42" viewBox="0 0 41 42" fill="none" xmlns="http://www.w3.org/2000/svg">
<g id="mdi brain freeze outline">
<g id="Vector" filter="url(#filter0_d_1_214)">
<path d="M21.6805 12C25.6179 12 28.784 15.14 28.784 19C28.784 21.8 27.1299 24.19 24.7249 25.31V30H17.6213V27H16.6065C15.4801 27 14.5769 26.11 14.5769 25V22H13.0548C12.6285 22 12.385 21.5 12.6285 21.19L14.5769 18.66C14.6664 16.8633 15.454 15.1694 16.7765 13.9294C18.099 12.6895 19.855 11.9986 21.6805 12ZM21.6805 10C17.0226 10 13.1664 13.42 12.6082 17.9L11.0252 20H10.9947L10.9744 20.03C10.4163 20.79 10.3453 21.79 10.7816 22.62C11.1469 23.31 11.7964 23.79 12.5474 23.94V25C12.5474 26.85 13.8463 28.42 15.5917 28.87V32H26.7545V26.5C29.2914 24.83 30.8136 22.06 30.8136 19C30.8136 14.03 26.7139 10 21.6805 10ZM26.0745 18.3L24.0856 18.81L25.5469 20.27C25.902 20.61 25.902 21.19 25.5469 21.54C25.1917 21.89 24.6031 21.89 24.2581 21.54L22.7866 20.1L22.2589 22.06C22.1372 22.55 21.6399 22.82 21.1731 22.7C21.0549 22.6708 20.9438 22.6189 20.8461 22.5472C20.7484 22.4756 20.666 22.3855 20.6038 22.2824C20.5415 22.1792 20.5006 22.0649 20.4834 21.9461C20.4661 21.8272 20.4729 21.7062 20.5033 21.59L21.0412 19.63L19.0522 20.16C18.9342 20.19 18.8114 20.1967 18.6908 20.1797C18.5703 20.1627 18.4543 20.1224 18.3496 20.061C18.2449 19.9997 18.1535 19.9185 18.0808 19.8222C18.0081 19.7259 17.9554 19.6164 17.9258 19.5C17.804 19.05 18.0881 18.55 18.5752 18.43L20.5642 17.91L19.1029 16.46C18.9503 16.2882 18.8696 16.0656 18.8773 15.8373C18.8849 15.6091 18.9804 15.3922 19.1443 15.2307C19.3081 15.0692 19.5282 14.9752 19.7598 14.9676C19.9915 14.9601 20.2173 15.0396 20.3917 15.19L21.8733 16.63L22.3909 14.67C22.5126 14.18 23.02 13.9 23.497 14.03C23.9942 14.16 24.2784 14.65 24.1464 15.13L23.6086 17.1L25.6077 16.57C26.0948 16.44 26.5921 16.72 26.724 17.21C26.8559 17.68 26.5718 18.18 26.0745 18.3Z" fill="white" fill-opacity="0.9" shape-rendering="crispEdges"/>
</g>
</g>
<defs>
<filter id="filter0_d_1_214" x="0.498535" y="0" width="40.3152" height="42" filterUnits="userSpaceOnUse" color-interpolation-filters="sRGB">
<feFlood flood-opacity="0" result="BackgroundImageFix"/>
<feColorMatrix in="SourceAlpha" type="matrix" values="0 0 0 0 0 0 0 0 0 0 0 0 0 0 0 0 0 0 127 0" result="hardAlpha"/>
<feOffset/>
<feGaussianBlur stdDeviation="5"/>
<feComposite in2="hardAlpha" operator="out"/>
<feColorMatrix type="matrix" values="0 0 0 0 1 0 0 0 0 1 0 0 0 0 1 0 0 0 0.58 0"/>
<feBlend mode="normal" in2="BackgroundImageFix" result="effect1_dropShadow_1_214"/>
<feBlend mode="normal" in="SourceGraphic" in2="effect1_dropShadow_1_214" result="shape"/>
</filter>
</defs>
</svg>
